<svg version="1.1" xmlns="http://www.w3.org/2000/svg" xmlns:xlink="http://www.w3.org/1999/xlink" width="47.44184" height="58.60883" viewBox="0,0,47.44184,58.60883"><g transform="translate(-220.6585,-148)"><g data-paper-data="{&quot;isPaintingLayer&quot;:true}" fill-rule="nonzero" stroke-linecap="butt" stroke-linejoin="miter" stroke-miterlimit="10" stroke-dasharray="" stroke-dashoffset="0" style="mix-blend-mode: normal"><path d="M247.40624,180.39127l7.53343,-5.46364l5.46364,7.53343l-7.53343,5.46364z" data-paper-data="{&quot;index&quot;:null}" fill="#000000" stroke="none" stroke-width="0"/><path d="M240.86849,183.58324l1.93872,-4.60883l15.67004,6.59166l-1.93872,4.60883z" data-paper-data="{&quot;index&quot;:null}" fill="#484848" stroke="none" stroke-width="0"/><path d="M251.68227,182.27897l3.96238,-2.79148l5.47132,7.76626l-3.96238,2.79149z" data-paper-data="{&quot;index&quot;:null}" fill="#949494" stroke="none" stroke-width="0"/><path d="M255.10327,191.33439l7.53343,-5.46363l5.46364,7.53343l-7.53343,5.46364z" data-paper-data="{&quot;index&quot;:null}" fill="#000000" stroke="none" stroke-width="0"/><path d="M235,195v-30h10v30z" data-paper-data="{&quot;index&quot;:null}" fill="#484848" stroke="#484848" stroke-width="2"/><path d="M240,173c-6.62742,0 -12,-5.37258 -12,-12c0,-6.62742 5.37258,-12 12,-12c6.62742,0 12,5.37258 12,12c0,6.62742 -5.37258,12 -12,12z" data-paper-data="{&quot;index&quot;:null}" fill="#ffffff" stroke="#484848" stroke-width="2"/><path d="M243.5,160.46c-1.21503,0 -2.2,-0.98497 -2.2,-2.2c0,-1.21503 0.98497,-2.2 2.2,-2.2c1.21503,0 2.2,0.98497 2.2,2.2c0,1.21503 -0.98497,2.2 -2.2,2.2z" data-paper-data="{&quot;index&quot;:null}" fill="#000000" stroke="#000000" stroke-width="0"/><path d="M234.3,158.26c0,-1.21503 0.98498,-2.2 2.2,-2.2c1.21503,0 2.2,0.98498 2.2,2.2c0,1.21502 -0.98498,2.2 -2.2,2.2c-1.21503,0 -2.2,-0.98498 -2.2,-2.2z" data-paper-data="{&quot;index&quot;:null}" fill="#000000" stroke="#000000" stroke-width="0"/><path d="M234.91666,167v-2h10.16667v2z" data-paper-data="{&quot;index&quot;:null}" fill="#000000" stroke="none" stroke-width="0"/><path d="M220.6585,178.72736l1.71791,-4.69561l15.96509,5.84088l-1.71791,4.69562z" data-paper-data="{&quot;index&quot;:null}" fill="#484848" stroke="none" stroke-width="0"/><path d="M241.30229,206.55v-13.5h4.66993v13.5z" data-paper-data="{&quot;index&quot;:null}" fill="#484848" stroke="none" stroke-width="0"/><path d="M234.00817,206.60883v-13.5h4.66993v13.5z" data-paper-data="{&quot;index&quot;:null}" fill="#484848" stroke="none" stroke-width="0"/></g></g></svg>