<svg version="1.1" xmlns="http://www.w3.org/2000/svg" xmlns:xlink="http://www.w3.org/1999/xlink" width="47.44184" height="58.60883" viewBox="0,0,47.44184,58.60883"><g transform="translate(-211.89966,-148)"><g data-paper-data="{&quot;isPaintingLayer&quot;:true}" fill-rule="nonzero" stroke-linecap="butt" stroke-linejoin="miter" stroke-miterlimit="10" stroke-dasharray="" stroke-dashoffset="0" style="mix-blend-mode: normal"><path d="M227.13012,187.9247l-7.53343,-5.46364l5.46364,-7.53343l7.53343,5.46364z" data-paper-data="{&quot;index&quot;:null}" fill="#000000" stroke="none" stroke-width="0"/><path d="M223.46147,190.1749l-1.93872,-4.60883l15.67004,-6.59166l1.93872,4.60883z" fill="#484848" stroke="none" stroke-width="0"/><path d="M222.84641,190.04524l-3.96238,-2.79149l5.47132,-7.76626l3.96238,2.79148z" data-paper-data="{&quot;index&quot;:null}" fill="#949494" stroke="none" stroke-width="0"/><path d="M219.43309,198.86783l-7.53343,-5.46364l5.46364,-7.53343l7.53343,5.46363z" data-paper-data="{&quot;index&quot;:null}" fill="#000000" stroke="none" stroke-width="0"/><path d="M235,195v-30h10v30z" fill="#484848" stroke="#484848" stroke-width="2"/><path d="M228,161c0,-6.62742 5.37258,-12 12,-12c6.62742,0 12,5.37258 12,12c0,6.62742 -5.37258,12 -12,12c-6.62742,0 -12,-5.37258 -12,-12z" fill="#ffffff" stroke="#484848" stroke-width="2"/><path d="M234.3,158.26c0,-1.21503 0.98497,-2.2 2.2,-2.2c1.21503,0 2.2,0.98497 2.2,2.2c0,1.21503 -0.98497,2.2 -2.2,2.2c-1.21503,0 -2.2,-0.98497 -2.2,-2.2z" fill="#000000" stroke="#000000" stroke-width="0"/><path d="M243.5,160.46c-1.21502,0 -2.2,-0.98498 -2.2,-2.2c0,-1.21502 0.98497,-2.2 2.2,-2.2c1.21502,0 2.2,0.98497 2.2,2.2c0,1.21502 -0.98497,2.2 -2.2,2.2z" data-paper-data="{&quot;index&quot;:null}" fill="#000000" stroke="#000000" stroke-width="0"/><path d="M234.91667,167v-2h10.16667v2z" fill="#000000" stroke="none" stroke-width="0"/><path d="M243.37641,184.56825l-1.71791,-4.69562l15.96509,-5.84088l1.71791,4.69561z" data-paper-data="{&quot;index&quot;:null}" fill="#484848" stroke="none" stroke-width="0"/><path d="M234.02778,206.55v-13.5h4.66993v13.5z" fill="#484848" stroke="none" stroke-width="0"/><path d="M241.3219,206.60883v-13.5h4.66993v13.5z" fill="#484848" stroke="none" stroke-width="0"/></g></g></svg>