<svg version="1.1" xmlns="http://www.w3.org/2000/svg" xmlns:xlink="http://www.w3.org/1999/xlink" width="489" height="54.28421" viewBox="0,0,489,54.28421"><g transform="translate(5.5,-134.34913)"><g data-paper-data="{&quot;isPaintingLayer&quot;:true}" fill-rule="nonzero" stroke="none" stroke-width="0" stroke-linecap="butt" stroke-linejoin="miter" stroke-miterlimit="10" stroke-dasharray="" stroke-dashoffset="0" style="mix-blend-mode: normal"><path d="M333.19932,165.48902l-1.88216,-9.55905l9.55906,-1.88217l1.88216,9.55906z" data-paper-data="{&quot;index&quot;:null}" fill="#000000"/><path d="M328.40318,164.0617l-1.04858,-4.96475l9.73089,-2.05522l1.04859,4.96474z" data-paper-data="{&quot;index&quot;:null}" fill="#949494"/><path d="M125.87756,183.57702l-1.79784,-9.13081l9.13081,-1.79784l1.79784,9.13081z" data-paper-data="{&quot;index&quot;:null}" fill="#000000"/><path d="M152.87756,183.32702l-1.79784,-9.13081l9.13081,-1.79784l1.79784,9.13081z" data-paper-data="{&quot;index&quot;:null}" fill="#000000"/><path d="M206.87756,182.82702l-1.79784,-9.13081l9.13081,-1.79784l1.79784,9.13081z" data-paper-data="{&quot;index&quot;:null}" fill="#000000"/><path d="M179.87756,183.07702l-1.79784,-9.13081l9.13081,-1.79784l1.79784,9.13081z" data-paper-data="{&quot;index&quot;:null}" fill="#000000"/><path d="M-5.5,188.30001v-5h489v5z" fill="#ffe866"/><path d="M175.29629,181.71364l-1.00161,-4.74232l9.29495,-1.96314l1.00161,4.74232z" data-paper-data="{&quot;index&quot;:null}" fill="#949494"/><path d="M166.78948,185.85164l-1.79784,-9.13081l9.13081,-1.79784l1.79784,9.13081z" data-paper-data="{&quot;index&quot;:null}" fill="#000000"/><path d="M202.29629,181.46364l-1.00161,-4.74232l9.29495,-1.96314l1.00161,4.74232z" data-paper-data="{&quot;index&quot;:null}" fill="#949494"/><path d="M193.78948,185.60164l-1.79784,-9.13081l9.13081,-1.79784l1.79784,9.13081z" data-paper-data="{&quot;index&quot;:null}" fill="#000000"/><path d="M121.29629,182.21364l-1.0016,-4.74232l9.29495,-1.96314l1.00161,4.74232z" data-paper-data="{&quot;index&quot;:null}" fill="#949494"/><path d="M112.78948,186.35164l-1.79784,-9.13081l9.13081,-1.79784l1.79784,9.13081z" data-paper-data="{&quot;index&quot;:null}" fill="#000000"/><path d="M148.29629,181.96364l-1.00161,-4.74232l9.29495,-1.96314l1.00161,4.74232z" data-paper-data="{&quot;index&quot;:null}" fill="#949494"/><path d="M139.78948,186.10164l-1.79784,-9.13081l9.13081,-1.79784l1.79784,9.13081z" data-paper-data="{&quot;index&quot;:null}" fill="#000000"/><path d="M315.83333,188.30001v-49.33334h5v49.33334z" fill="#66b8ff"/><path d="M350.16667,188.63334v-54h5v54z" fill="#66b8ff"/><path d="M334.16667,138.30001v-3.66667h20.66667v3.66667z" fill="#66b8ff"/><path d="M316.25554,141.25087l-0.58222,-3.62015l20.40447,-3.28159l0.58222,3.62015z" fill="#66b8ff"/><path d="M316.58887,166.25087l-0.58222,-3.62015l20.40447,-3.28159l0.58221,3.62015z" fill="#3da4ff"/><path d="M334.83333,163.10001v-3.66667h20.06667v3.66667z" fill="#3da4ff"/><path d="M320.37379,168.10164l-1.88216,-9.55905l9.55905,-1.88217l1.88216,9.55906z" data-paper-data="{&quot;index&quot;:null}" fill="#000000"/><path d="M333.5,188.30001v-53.66667h5v53.66667z" fill="#66b8ff"/></g></g></svg>